<?xml version="1.0" standalone="no"?><!DOCTYPE svg PUBLIC "-//W3C//DTD SVG 1.1//EN" "http://www.w3.org/Graphics/SVG/1.1/DTD/svg11.dtd"><svg height="98" node-id="1" sillyvg="true" template-height="98" template-width="137" version="1.1" viewBox="0 0 137 98" width="137" xmlns="http://www.w3.org/2000/svg" xmlns:xlink="http://www.w3.org/1999/xlink"><defs node-id="23"><linearGradient gradientUnits="objectBoundingBox" id="椭圆_2_2_" node-id="4" spreadMethod="pad" x1="48.3484" x2="88.9024" y1="12.31" y2="91.9"><stop offset="0" stop-color="#0422e0"></stop><stop offset="0.211" stop-color="#7228b0"></stop><stop offset="0.612" stop-color="#f381e0"></stop><stop offset="0.919" stop-color="#f6facc"></stop><stop offset="1" stop-color="#f6facc"></stop></linearGradient><linearGradient gradientUnits="objectBoundingBox" id="SVGID_1_" node-id="12" spreadMethod="pad" x1="69.6548" x2="56.8244" y1="91.7479" y2="10.7442"><stop offset="0" stop-color="#da69e3"></stop><stop offset="0.301" stop-color="#da69e3"></stop><stop offset="0.663" stop-color="#e9489f"></stop><stop offset="1" stop-color="#9f35d0"></stop></linearGradient><linearGradient gradientUnits="objectBoundingBox" id="SVGID_2_" node-id="18" spreadMethod="pad" x1="67.3659" x2="67.3659" y1="26.8442" y2="52.2694"><stop offset="0" stop-color="#e877ae"></stop><stop offset="1" stop-color="#7c73f3"></stop></linearGradient></defs><path d="M 108.40 47.90 L 107.60 56.00 L 105.30 63.40 L 101.60 70.20 L 96.70 76.00 L 90.90 80.90 L 84.10 84.60 L 76.70 86.90 L 68.60 87.70 L 64.50 87.50 L 56.70 85.90 L 49.60 82.90 L 43.30 78.60 L 37.90 73.20 L 33.60 66.90 L 30.60 59.80 L 29.00 52.00 L 28.80 47.90 L 29.00 43.80 L 30.60 36.00 L 33.60 28.90 L 37.90 22.60 L 43.30 17.20 L 46.30 14.90 L 53.10 11.20 L 60.50 8.90 L 68.60 8.10 L 76.70 8.90 L 84.10 11.20 L 90.90 14.90 L 96.70 19.80 L 101.60 25.60 L 105.30 32.40 L 107.60 39.80 L 108.40 47.90 Z" fill="url(#椭圆_2_2_)" fill-rule="nonzero" id="椭圆_2_1_" node-id="10" stroke="none" target-height="79.6" target-width="79.600006" target-x="28.8" target-y="8.1"></path><path d="M 70.00 7.50 L 74.90 7.80 L 79.60 8.60 L 83.90 10.00 L 88.10 11.80 L 91.90 14.00 L 95.30 16.70 L 98.40 19.70 L 100.90 23.00 L 103.00 26.60 L 104.50 30.50 L 105.50 34.50 L 105.80 38.80 L 105.50 43.10 L 104.50 47.10 L 103.00 51.00 L 100.90 54.60 L 98.40 57.90 L 95.30 60.90 L 91.90 63.60 L 88.10 65.80 L 83.90 67.60 L 79.60 69.00 L 74.90 69.80 L 70.00 70.10 L 65.10 69.80 L 60.40 69.00 L 56.10 67.60 L 51.90 65.80 L 48.10 63.60 L 44.70 60.90 L 41.60 57.90 L 39.10 54.60 L 37.00 51.00 L 35.50 47.10 L 34.50 43.10 L 34.20 38.80 L 34.50 34.50 L 35.50 30.50 L 37.00 26.60 L 39.10 23.00 L 41.60 19.70 L 44.70 16.70 L 48.10 14.00 L 51.90 11.80 L 56.10 10.00 L 60.40 8.60 L 65.10 7.80 L 70.00 7.50 Z" fill="#faf8d4" fill-opacity="0.07" fill-rule="evenodd" id="椭圆_17" node-id="11" stroke="none" target-height="62.6" target-width="71.600006" target-x="34.2" target-y="7.5"></path><path d="M 68.20 87.70 L 72.70 87.40 L 77.00 86.70 L 81.10 85.60 L 85.00 84.00 L 88.70 82.00 L 92.10 79.70 L 95.30 77.00 L 98.20 74.00 L 100.80 70.70 L 100.90 70.00 L 93.90 72.60 L 87.00 74.00 L 83.20 74.10 L 79.50 73.50 L 77.20 72.80 L 74.90 71.60 L 72.80 70.00 L 70.50 67.00 L 66.00 58.30 L 64.30 56.10 L 60.00 52.40 L 54.90 50.10 L 48.70 48.80 L 44.70 48.60 L 42.30 47.60 L 40.80 46.60 L 39.40 45.20 L 37.60 41.60 L 37.10 37.20 L 37.40 34.80 L 39.20 28.10 L 43.00 20.30 L 46.00 15.20 L 45.50 15.10 L 42.20 17.70 L 39.10 20.60 L 36.40 23.80 L 34.00 27.30 L 32.00 31.00 L 30.40 35.00 L 29.20 39.10 L 28.50 43.40 L 28.20 47.90 L 28.50 52.00 L 30.10 59.80 L 31.50 63.40 L 35.20 70.20 L 40.10 76.00 L 46.00 80.90 L 52.70 84.60 L 56.40 85.90 L 64.10 87.50 L 68.20 87.70 Z" fill="url(#SVGID_1_)" fill-opacity="0.72" fill-rule="evenodd" node-id="56" stroke="none" target-height="72.6" target-width="72.7" target-x="28.2" target-y="15.1"></path><path d="M 102.50 26.80 L 103.90 29.40 L 113.90 31.80 L 121.70 34.70 L 124.70 36.20 L 126.90 37.80 L 128.80 39.70 L 129.80 41.50 L 130.10 43.20 L 129.80 44.80 L 129.00 46.40 L 127.50 48.00 L 125.20 49.70 L 121.80 51.50 L 117.40 53.30 L 106.00 56.50 L 91.80 58.70 L 76.10 59.80 L 67.40 60.00 L 58.70 59.80 L 43.00 58.70 L 28.80 56.50 L 17.40 53.40 L 13.00 51.60 L 9.60 49.80 L 7.30 48.10 L 5.80 46.50 L 5.00 44.90 L 4.70 43.30 L 5.60 40.70 L 8.40 38.00 L 14.20 35.00 L 24.90 31.70 L 32.80 30.00 L 34.30 27.20 L 20.80 30.20 L 14.70 32.00 L 9.60 34.00 L 6.40 35.60 L 2.00 38.50 L 0.40 40.20 L -0.50 41.80 L -0.80 43.30 L -0.50 45.00 L 0.40 46.70 L 2.00 48.50 L 4.60 50.40 L 8.20 52.40 L 13.00 54.30 L 19.20 56.20 L 25.50 57.70 L 40.90 60.20 L 49.20 60.90 L 67.50 61.60 L 77.00 61.40 L 85.80 60.90 L 102.30 59.00 L 115.80 56.20 L 122.00 54.30 L 126.80 52.40 L 130.40 50.40 L 133.00 48.50 L 134.60 46.70 L 135.50 45.00 L 135.80 43.30 L 135.50 41.80 L 134.70 40.30 L 133.40 38.60 L 131.30 36.90 L 128.30 35.00 L 124.40 33.00 L 114.50 29.50 L 102.50 26.80 Z" fill="url(#SVGID_2_)" fill-rule="evenodd" node-id="58" stroke="none" target-height="34.8" target-width="136.6" target-x="-0.8" target-y="26.8"></path></svg>