<?xml version="1.0" standalone="no"?><!DOCTYPE svg PUBLIC "-//W3C//DTD SVG 1.1//EN" "http://www.w3.org/Graphics/SVG/1.1/DTD/svg11.dtd"><svg height="905" node-id="1" sillyvg="true" template-height="905" template-width="943" version="1.1" viewBox="0 0 943 905" width="943" xmlns="http://www.w3.org/2000/svg" xmlns:xlink="http://www.w3.org/1999/xlink"><defs node-id="50"></defs><g node-id="140"><path d="M 845.60 9.70 L 850.50 12.60 L 855.20 15.90 L 859.60 19.50 L 863.80 23.60 L 867.80 28.00 L 872.20 33.90 L 876.40 40.30 L 880.40 47.40 L 884.00 55.10 L 887.20 62.80 L 892.80 79.90 L 895.30 89.30 L 898.00 101.80 L 900.50 115.10 L 902.50 129.20 L 905.60 158.10 L 908.00 196.50 L 909.40 244.40 L 910.70 316.70 L 914.40 438.10 L 914.80 467.20 L 914.80 495.70 L 914.30 514.70 L 913.50 533.50 L 912.30 552.10 L 910.60 570.80 L 908.30 589.40 L 905.50 607.90 L 900.10 635.60 L 896.80 649.60 L 893.10 663.60 L 888.30 679.50 L 882.90 695.50 L 877.00 711.40 L 870.50 727.10 L 863.60 742.50 L 856.10 757.70 L 850.10 768.90 L 843.90 779.80 L 830.80 800.70 L 823.70 810.90 L 816.50 820.60 L 809.10 829.80 L 801.50 838.60 L 793.50 847.20 L 785.30 855.20 L 777.00 862.70 L 768.60 869.60 L 759.70 876.20 L 750.80 882.00 L 741.70 887.30 L 732.50 891.90 L 724.90 895.10 L 717.20 897.90 L 709.40 900.30 L 701.60 902.10 L 693.60 903.50 L 685.60 904.40 L 677.50 904.90 L 669.20 904.90 L 660.80 904.50 L 652.20 903.60 L 641.70 902.00 L 630.90 899.80 L 619.80 897.10 L 608.50 893.80 L 593.70 888.80 L 578.40 883.10 L 562.60 876.60 L 530.90 862.30 L 438.60 817.40 L 412.20 805.20 L 394.40 797.40 L 376.40 790.10 L 358.20 783.10 L 325.90 772.30 L 309.60 767.40 L 285.10 760.50 L 260.80 754.20 L 189.70 736.50 L 152.70 726.60 L 125.10 718.00 L 111.80 713.20 L 99.20 708.20 L 87.40 702.90 L 78.70 698.60 L 70.40 694.10 L 62.70 689.30 L 55.40 684.40 L 48.30 679.00 L 41.80 673.30 L 35.80 667.30 L 30.30 661.10 L 25.60 655.00 L 21.40 648.60 L 17.60 641.90 L 14.10 634.90 L 11.10 627.70 L 7.90 618.40 L 5.20 608.80 L 3.10 598.80 L 1.50 588.30 L 0.50 577.90 L 0.00 567.20 L 0.00 556.20 L 0.60 544.90 L 1.60 533.70 L 3.00 522.30 L 4.90 510.80 L 7.30 499.20 L 13.20 476.10 L 16.70 464.60 L 20.60 453.10 L 26.40 437.90 L 32.70 423.00 L 39.60 408.40 L 45.10 397.60 L 50.90 387.10 L 63.20 367.00 L 70.70 356.10 L 78.30 345.70 L 86.20 335.70 L 94.20 326.20 L 102.50 317.00 L 113.30 305.90 L 124.30 295.30 L 135.50 285.30 L 146.90 275.90 L 158.60 266.80 L 170.50 258.10 L 182.40 249.90 L 194.40 242.20 L 210.70 232.40 L 226.80 223.20 L 242.80 214.80 L 259.10 206.70 L 290.30 192.20 L 327.90 176.00 L 364.80 161.20 L 442.20 130.90 L 485.60 113.20 L 533.90 92.20 L 616.40 54.90 L 638.10 45.40 L 674.30 30.60 L 702.80 20.20 L 717.10 15.50 L 730.90 11.40 L 754.40 5.50 L 764.20 3.60 L 782.70 0.90 L 792.00 0.20 L 800.70 0.00 L 809.00 0.30 L 816.90 1.00 L 823.30 2.00 L 829.30 3.40 L 835.00 5.20 L 840.40 7.30 L 845.60 9.70 Z" fill="#f0f0f0" fill-rule="nonzero" group-id="1" node-id="54" stroke="none" target-height="904.9" target-width="914.8" target-x="0" target-y="0"></path><path d="M 95.50 532.50 L 89.90 530.10 L 82.40 526.00 L 70.80 518.50 L 65.00 514.00 L 62.60 511.70 L 61.70 511.30 L 60.70 511.40 L 58.90 512.60 L 57.60 515.20 L 57.30 519.20 L 57.70 521.30 L 59.90 526.80 L 61.50 529.50 L 67.30 536.00" fill="#ffffff" fill-rule="nonzero" group-id="1" node-id="56" stroke="none" target-height="24.700012" target-width="38.2" target-x="57.3" target-y="511.3"></path><path d="M 87.50 524.50 L 81.90 522.10 L 74.40 518.00 L 62.80 510.50 L 57.00 506.00 L 54.60 503.70 L 53.70 503.30 L 52.70 503.40 L 50.90 504.60 L 49.60 507.20 L 49.30 511.20 L 49.70 513.30 L 51.90 518.80 L 53.50 521.50 L 59.30 528.00" fill="none" group-id="1" node-id="58" stroke="#1b3c87" stroke-linecap="round" stroke-width="4.78" target-height="24.700012" target-width="38.2" target-x="49.3" target-y="503.3"></path><path d="M 175.50 563.50 L 165.40 549.40 L 159.20 539.90 L 153.80 531.00 L 149.40 522.50 L 146.40 519.80 L 143.60 518.80 L 142.10 518.80 L 140.70 519.30 L 139.30 520.30 L 138.20 521.70 L 137.20 523.90 L 136.40 527.10 L 136.00 530.40 L 135.90 534.90 L 136.20 540.90 L 137.00 546.80 L 140.30 563.50" fill="#ffffff" fill-rule="nonzero" group-id="1" node-id="60" stroke="none" target-height="44.700012" target-width="39.600006" target-x="135.9" target-y="518.8"></path><path d="M 165.50 553.50 L 155.40 539.40 L 149.20 529.90 L 143.80 521.00 L 139.40 512.50 L 137.70 510.60 L 136.30 509.70 L 133.30 508.80 L 131.80 508.90 L 130.40 509.50 L 128.90 510.80 L 127.90 512.40 L 126.90 514.80 L 126.20 518.50 L 125.90 522.30 L 126.00 527.40 L 126.60 534.10" fill="none" group-id="1" node-id="62" stroke="#1b3c87" stroke-linecap="round" stroke-width="4.78" target-height="44.700012" target-width="39.6" target-x="125.9" target-y="508.8"></path><path d="M 286.90 654.20 L 277.30 672.90 L 252.50 719.50 L 225.20 662.10 L 203.00 617.10 L 189.00 590.50 L 185.80 585.10 L 182.20 580.00 L 181.50 579.50 L 174.60 576.90 L 119.40 557.00 L 75.90 540.60 L 58.70 533.70 L 47.50 528.50 L 45.30 527.70 L 42.60 527.40 L 39.80 527.70 L 37.30 528.50 L 35.80 529.40 L 34.70 530.60 L 34.00 532.10 L 33.70 533.70 L 34.00 535.70 L 35.10 538.40 L 36.50 540.80 L 39.00 543.90 L 42.80 547.70 L 46.80 551.30 L 59.50 560.50 L 129.60 605.30 L 144.20 615.90 L 148.00 619.10 L 150.20 621.60 L 151.50 623.50 L 153.90 630.50 L 162.60 663.50 L 173.90 709.70 L 192.50 788.50 L 326.60 788.50 L 327.60 788.10 L 328.90 786.90 L 330.80 784.20 L 333.30 779.70 L 336.40 773.10 L 342.80 757.50 L 355.50 721.50 L 365.50 690.50 L 342.60 676.80 L 329.00 669.30 L 308.20 658.90 L 296.60 654.40 L 292.40 653.40 L 289.70 653.20 L 288.00 653.50 L 286.90 654.20 Z" fill="#ffffff" fill-rule="nonzero" group-id="1" node-id="64" stroke="none" target-height="261.09998" target-width="331.8" target-x="33.7" target-y="527.4"></path><path d="M 172.90 737.50 L 182.50 778.50 L 316.60 778.50 L 317.60 778.10 L 318.90 776.90 L 320.80 774.20 L 323.30 769.70 L 329.50 755.90 L 339.40 729.50 L 345.50 711.50 L 355.50 680.50 L 332.60 666.80 L 319.00 659.30 L 305.00 652.10 L 292.30 646.40 L 286.60 644.40 L 282.40 643.40 L 279.70 643.20 L 278.00 643.50 L 276.90 644.20 L 267.30 662.90 L 242.50 709.50 L 215.20 652.10 L 193.00 607.10 L 179.00 580.50 L 173.50 571.70 L 171.50 569.50 L 142.00 558.80" fill="none" group-id="1" node-id="66" stroke="#1b3c87" stroke-linecap="round" stroke-width="4.78" target-height="219.70001" target-width="213.5" target-x="142" target-y="558.8"></path><path d="M 76.40 567.80 L 100.00 582.60 L 119.90 595.50 L 128.30 601.30 L 134.30 605.90 L 138.00 609.10 L 140.30 611.60 L 141.50 613.50 L 144.00 621.10 L 148.20 636.30 L 165.40 706.20" fill="none" group-id="1" node-id="68" stroke="#1b3c87" stroke-linecap="round" stroke-width="4.78" target-height="138.40002" target-width="88.99999" target-x="76.4" target-y="567.8"></path><path d="M 115.80 549.30 L 60.50 528.50 L 46.70 522.80 L 37.50 518.50 L 35.50 517.80 L 33.00 517.40 L 30.50 517.60 L 28.10 518.20 L 25.50 519.80 L 24.00 522.20 L 23.80 523.80 L 24.00 525.80 L 24.70 527.70 L 26.10 530.20 L 28.40 533.20 L 34.40 539.20 L 39.30 543.20" fill="none" group-id="1" node-id="70" stroke="#1b3c87" stroke-linecap="round" stroke-width="4.78" target-height="31.899963" target-width="92" target-x="23.8" target-y="517.4"></path><path d="M 468.10 490.50 L 471.90 492.80 L 475.30 495.40 L 478.40 498.30 L 481.20 501.50 L 483.60 505.10 L 486.00 509.80 L 488.10 515.00 L 489.70 520.70 L 490.90 526.90 L 491.60 533.10 L 491.90 546.60 L 491.50 554.00 L 490.40 563.70 L 488.70 573.70 L 486.50 584.30 L 480.80 605.20 L 477.30 615.90 L 473.50 626.40 L 465.20 646.80 L 460.60 656.70 L 451.40 675.00 L 446.50 683.80 L 437.20 698.60 L 432.40 705.50 L 424.10 715.70 L 420.20 716.20 L 415.40 716.20 L 409.50 715.60 L 397.10 713.00 L 389.80 710.90 L 378.80 707.30 L 366.90 702.60 L 354.90 697.40 L 342.80 691.60 L 330.90 685.30 L 312.10 673.90 L 299.00 664.60 L 292.90 659.70 L 287.70 655.00 L 280.10 646.80 L 277.60 643.40 L 274.30 637.10 L 276.40 631.70 L 280.10 623.70 L 284.60 615.10 L 290.50 604.80 L 297.10 594.10 L 304.90 582.30 L 313.30 570.50 L 329.30 550.30 L 343.30 534.60 L 350.70 527.10 L 358.30 520.00 L 366.10 513.30 L 374.20 507.00 L 382.40 501.30 L 390.60 496.30 L 397.00 492.80 L 403.40 489.90 L 409.80 487.50 L 416.20 485.50 L 422.70 484.00 L 429.20 483.00 L 435.70 482.70 L 442.20 482.90 L 447.30 483.50 L 452.40 484.50 L 457.60 486.00 L 462.80 488.00 L 468.10 490.50 Z" fill="#46dbc9" fill-rule="nonzero" group-id="1" node-id="72" stroke="none" target-height="233.5" target-width="217.6" target-x="274.3" target-y="482.7"></path><path d="M 880.70 217.50 L 940.60 354.80 L 696.50 396.30 L 880.70 217.50 Z" fill="none" group-id="1" node-id="74" stroke="#b6c6fc" stroke-linecap="round" stroke-width="4.78" target-height="178.79999" target-width="244.09998" target-x="696.5" target-y="217.5"></path><g node-id="141"><path d="M 80.80 353.40 L 198.50 213.50 L 321.60 317.00 L 203.90 456.90 Z" fill="none" group-id="1,2" node-id="78" stroke="#b6c6fc" stroke-linecap="round" stroke-width="4.78" target-height="243.4" target-width="240.8" target-x="80.8" target-y="213.5"></path></g><path d="M 346.90 511.30 L 353.80 505.30 L 367.80 494.40 L 375.10 489.50 L 382.50 485.20 L 389.80 481.50 L 395.50 479.00 L 406.80 475.30 L 412.40 474.00 L 418.20 473.10 L 423.90 472.70 L 429.60 472.70 L 435.30 473.20 L 441.00 474.20 L 446.60 475.70 L 452.30 477.80 L 458.10 480.50 L 461.90 482.80 L 465.30 485.40 L 468.40 488.30 L 471.20 491.50 L 473.60 495.10 L 476.00 499.80 L 478.10 505.00 L 479.70 510.70 L 480.90 516.90 L 481.60 523.10 L 481.90 536.60 L 481.50 544.00 L 480.40 553.70 L 478.70 563.70 L 476.50 574.30 L 470.80 595.20 L 467.30 605.90 L 459.50 626.70 L 455.20 636.80 L 446.00 656.20 L 441.40 665.00 L 431.80 681.60 L 422.40 695.50 L 418.00 701.10 L 414.10 705.70 L 410.20 706.20 L 405.40 706.20 L 399.50 705.60 L 387.10 703.00 L 379.80 700.90 L 368.80 697.30 L 356.90 692.60 L 344.90 687.40 L 332.80 681.60 L 320.90 675.30 L 309.50 668.60 L 302.10 663.90 L 289.00 654.60 L 282.90 649.70 L 277.70 645.00 L 273.30 640.50 L 267.60 633.40 L 264.30 627.10 L 266.50 621.40 L 270.50 613.00 L 275.20 604.00 L 281.60 593.00 L 288.60 581.80 L 296.90 569.40" fill="none" group-id="1" node-id="81" stroke="#1b3c87" stroke-linecap="round" stroke-width="4.78" target-height="233.5" target-width="217.6" target-x="264.3" target-y="472.7"></path><path d="M 454.30 454.10 L 461.60 449.50 L 469.20 445.30 L 477.10 441.50 L 485.20 438.10 L 493.60 435.20 L 502.10 432.90 L 510.90 431.00 L 520.10 429.60 L 529.60 428.80 L 539.50 428.50 L 548.80 428.80 L 557.80 429.70 L 566.40 431.20 L 574.70 433.30 L 582.70 435.90 L 590.50 439.10 L 598.10 442.80 L 605.40 447.00 L 612.50 451.70 L 619.40 457.00 L 625.80 462.60 L 632.10 468.80 L 638.20 475.40 L 644.10 482.50 L 649.80 490.20 L 656.40 500.00 L 662.70 510.50 L 668.70 521.80 L 674.40 533.80 L 679.50 545.90 L 684.40 558.70 L 689.00 572.10 L 693.20 586.20 L 697.00 600.30 L 700.60 614.90 L 703.80 630.00 L 706.70 645.70 L 711.50 677.40 L 715.00 710.70 L 716.70 733.10 L 717.90 756.00 L 718.50 779.50" fill="none" group-id="1" node-id="83" stroke="#1b3c87" stroke-linecap="round" stroke-width="4.78" target-height="351" target-width="264.2" target-x="454.3" target-y="428.5"></path><path d="M 347.90 623.40 L 352.00 610.50 L 361.20 585.10 L 366.20 572.70 L 371.60 560.50 L 377.20 548.70 L 383.30 537.10 L 389.70 525.90 L 396.40 515.20 L 403.50 504.70 L 411.00 494.90 L 418.80 485.60" fill="none" group-id="1" node-id="85" stroke="#1b3c87" stroke-linecap="round" stroke-width="4.78" target-height="137.80002" target-width="70.899994" target-x="347.9" target-y="485.6"></path><path d="M 316.60 778.60 L 321.30 743.10 L 327.80 704.80" fill="none" group-id="1" node-id="87" stroke="#1b3c87" stroke-linecap="round" stroke-width="4.78" target-height="73.79999" target-width="11.199982" target-x="316.6" target-y="704.8"></path><path d="M 728.30 778.50 L 726.50 739.60 L 723.20 702.20 L 721.00 683.60 L 718.30 665.60 L 715.30 648.20 L 712.00 631.30 L 708.10 614.30 L 703.80 598.20 L 699.10 582.80 L 694.10 568.10 L 689.60 556.30 L 684.90 545.00 L 680.00 534.40 L 674.80 524.40 L 669.40 514.90 L 663.40 505.40 L 657.20 496.60 L 650.80 488.40 L 644.10 480.90 L 637.30 474.00 L 631.10 468.40 L 624.80 463.40 L 618.20 458.80 L 611.50 454.70 L 604.60 451.00 L 597.40 447.70 L 590.10 445.00 L 582.60 442.70 L 574.80 440.90 L 566.70 439.60 L 558.30 438.80 L 549.50 438.50 L 539.20 438.80 L 529.20 439.70 L 519.70 441.20 L 510.60 443.20 L 501.80 445.80 L 493.10 449.00 L 484.70 452.60 L 476.60 456.70 L 468.80 461.20 L 461.20 466.30 L 453.90 471.70 L 446.90 477.50 L 440.10 483.80 L 433.50 490.40 L 427.10 497.50 L 419.60 506.60 L 412.40 516.20 L 405.60 526.40 L 399.00 537.10 L 392.90 547.90 L 387.00 559.20 L 381.50 570.70 L 376.20 582.70 L 369.80 598.80 L 363.80 615.30 L 358.30 632.00 L 353.30 648.90 L 348.70 665.80 L 340.90 699.60 L 334.70 732.30 L 330.80 756.20 L 327.80 778.50 Z" fill="#46dbc9" fill-rule="nonzero" group-id="1" node-id="89" stroke="none" target-height="340" target-width="400.5" target-x="327.8" target-y="438.5"></path><path d="M 797.50 706.20 L 768.50 638.50 L 657.50 706.50 L 664.80 730.60 L 679.80 778.50" fill="none" group-id="1" node-id="91" stroke="#1b3c87" stroke-linecap="round" stroke-width="4.78" target-height="140" target-width="140" target-x="657.5" target-y="638.5"></path><path d="M 797.00 779.00 L 797.00 691.60 L 778.50 648.50 L 667.50 716.50 L 686.80 779.00 Z" fill="#ffffff" fill-rule="nonzero" group-id="1" node-id="93" stroke="none" target-height="130.5" target-width="129.5" target-x="667.5" target-y="648.5"></path><path d="M 648.50 479.50 L 652.70 477.80 L 656.80 476.60 L 661.00 475.90 L 665.20 475.70 L 669.50 475.90 L 674.80 476.80 L 680.20 478.30 L 685.70 480.40 L 691.40 483.20 L 696.70 486.40 L 707.70 494.30 L 713.30 499.10 L 720.30 505.80 L 727.40 513.30 L 734.40 521.40 L 747.70 538.60 L 754.10 547.80 L 760.20 557.20 L 771.40 576.10 L 776.60 585.80 L 785.60 604.20 L 789.60 613.30 L 795.90 629.70 L 798.40 637.70 L 801.50 650.50 L 799.60 653.80 L 796.70 657.60 L 792.60 662.00 L 783.10 670.30 L 777.00 674.90 L 767.50 681.50 L 756.60 688.20 L 745.20 694.60 L 733.30 700.70 L 721.00 706.40 L 700.70 714.50 L 685.30 719.40 L 677.70 721.30 L 670.80 722.60 L 659.80 723.70 L 655.50 723.60 L 648.50 722.50 L 645.40 717.50 L 641.30 709.70 L 637.20 701.00 L 632.50 690.00 L 627.90 678.30 L 623.30 665.00 L 618.90 651.10 L 612.40 626.20 L 608.40 605.60 L 606.90 595.10 L 605.80 584.80 L 605.20 574.50 L 605.00 564.20 L 605.40 554.30 L 606.40 544.70 L 607.50 537.50 L 609.00 530.70 L 610.90 524.10 L 613.20 517.80 L 615.90 511.70 L 619.10 506.00 L 622.70 500.60 L 626.80 495.50 L 630.40 491.80 L 634.40 488.30 L 638.70 485.10 L 643.40 482.20 L 648.50 479.50 Z" fill="#46dbc9" fill-rule="nonzero" group-id="1" node-id="95" stroke="none" target-height="248" target-width="196.5" target-x="605" target-y="475.7"></path><path d="M 699.20 485.60 L 705.50 491.20 L 711.80 497.30 L 724.20 511.10 L 736.10 526.30 L 744.50 538.40 L 752.40 550.80 L 759.90 563.50 L 766.70 576.00 L 773.00 588.60 L 778.40 600.40 L 783.10 612.00 L 786.80 622.40 L 788.90 629.30 L 791.50 640.50 L 789.60 643.80 L 786.70 647.60 L 782.60 652.00 L 778.30 656.00 L 767.00 664.90 L 757.50 671.50 L 746.60 678.20 L 735.20 684.60 L 723.30 690.70 L 711.00 696.40 L 698.90 701.50 L 690.70 704.50 L 675.30 709.40 L 667.70 711.30 L 660.80 712.60 L 649.80 713.70 L 645.50 713.60 L 638.50 712.50 L 635.00 706.80 L 631.90 701.00" fill="none" group-id="1" node-id="97" stroke="#1b3c87" stroke-linecap="round" stroke-width="4.78" target-height="228.1" target-width="159.59998" target-x="631.9" target-y="485.6"></path><path d="M 602.10 615.00 L 598.00 593.30 L 596.60 582.40 L 595.60 571.40 L 595.10 560.70 L 595.10 550.20 L 595.60 542.30 L 596.40 534.70 L 597.60 527.30 L 599.20 520.20 L 601.20 513.20 L 603.70 506.60 L 606.70 500.30 L 610.10 494.40 L 613.20 490.00 L 616.60 485.80 L 620.50 481.80 L 624.70 478.20 L 629.30 474.70" fill="none" group-id="1" node-id="99" stroke="#1b3c87" stroke-linecap="round" stroke-width="4.78" target-height="140.29999" target-width="34.200012" target-x="595.1" target-y="474.7"></path><path d="M 762.90 156.50 L 797.50 156.50 L 797.50 778.50 L 175.50 778.50 L 175.50 748.60" fill="none" group-id="1" node-id="101" stroke="#1b3c87" stroke-linecap="round" stroke-width="4.78" target-height="622" target-width="622" target-x="175.5" target-y="156.5"></path><path d="M 175.50 204.60 L 175.50 156.50 L 629.30 156.50" fill="none" group-id="1" node-id="103" stroke="#1b3c87" stroke-linecap="round" stroke-width="4.78" target-height="48.100006" target-width="453.8" target-x="175.5" target-y="156.5"></path><path d="M 175.50 574.60 L 175.50 356.80" fill="none" group-id="1" node-id="105" stroke="#1b3c87" stroke-linecap="round" stroke-width="4.78" target-height="217.79999" target-width="0" target-x="175.5" target-y="356.8"></path><path d="M 596.00 344.00 L 591.80 363.20 L 589.60 375.30 L 586.40 400.50 L 584.80 424.40 L 584.40 436.90 L 584.50 450.40 L 585.00 465.00 L 582.00 467.30 L 578.20 469.40 L 573.50 471.40 L 563.30 474.40 L 557.30 475.60 L 545.00 476.90 L 538.40 477.10 L 531.80 477.00 L 518.70 475.70 L 512.20 474.60 L 506.10 473.00 L 500.30 471.10 L 494.60 468.80 L 489.50 466.10 L 485.00 463.00 L 487.70 442.50 L 489.30 418.10 L 489.50 405.00 L 489.20 380.40 L 490.80 377.20 L 492.40 375.40 L 498.00 371.30 L 508.60 366.20 L 516.30 363.30 L 533.20 357.90 L 551.10 353.30 L 568.00 349.40 L 596.00 344.00 Z" fill="#ffffff" fill-rule="nonzero" group-id="1" node-id="107" stroke="none" target-height="133.1" target-width="111" target-x="485" target-y="344"></path><path d="M 477.00 455.00 L 479.70 434.50 L 481.30 410.10 L 481.50 397.00 L 481.00 374.00 L 481.70 370.80 L 484.40 367.40 L 490.00 363.30 L 494.10 361.10 L 500.60 358.20 L 516.40 352.50 L 525.20 349.90 L 543.10 345.30 L 560.00 341.40 L 588.00 336.00 L 583.80 355.20 L 581.60 367.30 L 578.40 392.50 L 576.80 416.40 L 576.40 428.90 L 576.50 442.40 L 577.00 457.00 L 574.30 459.00 L 571.00 461.00 L 567.10 462.80 L 558.30 465.70 L 553.20 466.90 L 545.40 468.20 L 536.90 468.90 L 528.30 469.10 L 519.50 468.70" fill="none" group-id="1" node-id="109" stroke="#1b3c87" stroke-linecap="round" stroke-width="4.78" target-height="133.1" target-width="111" target-x="477" target-y="336"></path><path d="M 620.50 274.50 L 620.20 283.60 L 619.50 292.50 L 618.40 301.10 L 616.80 309.60 L 614.80 317.90 L 612.30 326.00 L 609.50 333.70 L 606.40 341.10 L 602.80 348.40 L 598.90 355.20 L 594.70 361.70 L 590.20 367.80 L 585.30 373.60 L 580.20 379.00 L 574.80 383.90 L 569.20 388.40 L 563.30 392.50 L 557.20 396.10 L 551.00 399.20 L 544.50 401.70 L 537.90 403.80 L 531.10 405.20 L 524.10 406.10 L 517.00 406.50 L 509.90 406.10 L 502.90 405.20 L 496.10 403.80 L 489.50 401.70 L 483.00 399.20 L 476.80 396.10 L 470.70 392.50 L 464.80 388.40 L 459.20 383.90 L 453.80 379.00 L 448.70 373.60 L 443.80 367.80 L 439.30 361.70 L 435.10 355.20 L 431.20 348.40 L 427.60 341.10 L 424.50 333.70 L 421.70 326.00 L 419.20 317.90 L 417.20 309.60 L 415.60 301.10 L 414.50 292.50 L 413.80 283.60 L 413.50 274.50 L 413.80 265.30 L 414.50 256.40 L 415.60 247.80 L 417.20 239.40 L 419.20 231.00 L 421.70 223.00 L 424.50 215.20 L 427.60 207.80 L 431.20 200.60 L 435.10 193.70 L 439.30 187.20 L 443.80 181.10 L 448.70 175.30 L 453.80 169.90 L 459.20 165.00 L 464.80 160.50 L 470.70 156.40 L 476.80 152.80 L 483.00 149.70 L 489.50 147.20 L 496.10 145.10 L 502.90 143.70 L 509.90 142.80 L 517.00 142.50 L 524.10 142.80 L 531.10 143.70 L 537.90 145.10 L 544.50 147.20 L 551.00 149.70 L 557.20 152.80 L 563.30 156.40 L 569.20 160.50 L 574.80 165.00 L 580.20 169.90 L 585.30 175.30 L 590.20 181.10 L 594.70 187.20 L 598.90 193.70 L 602.80 200.60 L 606.40 207.80 L 609.50 215.20 L 612.30 223.00 L 614.80 231.00 L 616.80 239.40 L 618.40 247.80 L 619.50 256.40 L 620.20 265.30 L 620.50 274.50 Z" fill="#ffffff" fill-rule="nonzero" group-id="1" node-id="111" stroke="none" target-height="264" target-width="207" target-x="413.5" target-y="142.5"></path><path d="M 555.20 382.60 L 549.90 385.80 L 544.50 388.50 L 538.90 390.90 L 533.10 392.90 L 527.20 394.40 L 521.20 395.50 L 515.20 396.20 L 509.00 396.50 L 502.60 396.20 L 496.40 395.50 L 490.40 394.30 L 484.40 392.70 L 478.60 390.70 L 472.90 388.20 L 467.40 385.40 L 462.10 382.10 L 456.80 378.50 L 451.80 374.50 L 445.80 369.00 L 440.20 363.10 L 434.90 356.60 L 429.90 349.60" fill="none" group-id="1" node-id="113" stroke="#1b3c87" stroke-linecap="round" stroke-width="4.78" target-height="46.899994" target-width="125.30002" target-x="429.9" target-y="349.6"></path><path d="M 410.90 306.60 L 408.90 298.20 L 407.40 289.90 L 406.30 281.50 L 405.70 273.00 L 405.50 264.50 L 405.80 255.30 L 406.50 246.40 L 407.60 237.80 L 409.20 229.40 L 411.20 221.00 L 413.70 213.00 L 416.50 205.20 L 419.60 197.80 L 423.20 190.60 L 427.10 183.70 L 431.30 177.20 L 435.80 171.10 L 440.70 165.30 L 445.80 159.90 L 451.20 155.00 L 456.80 150.50 L 462.70 146.40 L 468.80 142.80 L 475.00 139.70 L 481.50 137.20 L 488.10 135.10 L 494.90 133.70 L 501.90 132.80 L 509.00 132.50 L 516.10 132.80 L 523.10 133.70 L 529.90 135.10 L 536.50 137.20 L 543.00 139.70 L 549.20 142.80 L 555.30 146.40 L 561.20 150.50 L 566.80 155.00 L 572.20 159.90 L 577.30 165.30 L 582.20 171.10 L 586.70 177.20 L 590.90 183.70 L 594.80 190.60 L 598.40 197.80 L 601.50 205.20 L 604.30 213.00 L 606.80 221.00 L 608.80 229.40 L 610.40 237.80 L 611.50 246.40 L 612.20 255.30 L 612.50 264.50 L 612.30 273.10 L 611.60 281.60 L 610.50 290.20 L 609.00 298.60 L 607.00 307.00 L 604.60 315.20" fill="none" group-id="1" node-id="115" stroke="#1b3c87" stroke-linecap="round" stroke-width="4.78" target-height="182.70001" target-width="207" target-x="405.5" target-y="132.5"></path><path d="M 466.50 252.50 L 465.90 255.70 L 464.60 260.30 L 460.50 270.80 L 457.90 276.40 L 451.90 287.60 L 448.70 292.60 L 445.50 297.10 L 442.50 300.50" fill="none" group-id="1" node-id="117" stroke="#1b3c87" stroke-linecap="round" stroke-width="4.78" target-height="48" target-width="24" target-x="442.5" target-y="252.5"></path><path d="M 473.50 340.50 L 476.20 340.30 L 479.90 339.50 L 485.10 337.30 L 488.10 335.40 L 490.80 333.20 L 493.60 330.30 L 496.50 326.50" fill="none" group-id="1" node-id="119" stroke="#1b3c87" stroke-linecap="round" stroke-width="4.78" target-height="14" target-width="23" target-x="473.5" target-y="326.5"></path><g node-id="142"><path d="M 439.00 250.10 L 440.10 250.70 L 441.10 251.90 L 441.80 253.60 L 442.20 258.20 L 442.00 261.00 L 440.50 266.00 L 438.20 269.40 L 436.80 270.20 L 435.60 270.30 L 434.40 269.80 L 433.40 268.60 L 432.80 266.90 L 432.30 262.20 L 432.60 259.40 L 433.20 256.70 L 435.20 252.50 L 436.40 251.10 L 437.70 250.30 L 439.00 250.10 Z" fill="#1b3c87" fill-rule="nonzero" group-id="1,3" node-id="123" stroke="none" target-height="20.199982" target-width="9.900024" target-x="432.3" target-y="250.1"></path></g><path d="M 640.50 220.50 L 640.20 213.80 L 639.30 207.50 L 637.90 201.30 L 636.00 195.40 L 633.60 189.60 L 630.80 184.00 L 627.60 178.60 L 624.00 173.40 L 618.70 166.80 L 612.90 160.50 L 606.60 154.60 L 600.00 149.10 L 593.10 143.90 L 586.00 139.20 L 571.40 130.90 L 564.20 127.40 L 550.00 121.60 L 522.80 113.10 L 499.70 106.50 L 476.30 100.50 L 464.90 98.00 L 454.60 96.10 L 447.70 95.20 L 436.50 94.50 L 431.70 94.70 L 427.10 95.40 L 422.60 96.60 L 418.30 98.20 L 410.10 102.50 L 402.60 108.20 L 398.10 112.70 L 394.00 117.60 L 390.30 123.00 L 387.20 128.70 L 384.50 134.70 L 382.40 140.90 L 380.80 147.40 L 379.80 153.90 L 379.50 160.50 L 379.70 167.30 L 380.40 173.70 L 381.40 179.80 L 382.80 185.60 L 384.70 191.30 L 386.80 196.70 L 389.20 201.60 L 391.90 206.20 L 394.90 210.60 L 398.20 214.60 L 401.60 218.10 L 405.20 221.20 L 409.20 224.00 L 413.20 226.30 L 417.30 228.10 L 421.50 229.50 L 427.50 212.50 L 430.00 213.70 L 433.50 214.70 L 447.10 217.40 L 466.30 220.30 L 489.00 223.20 L 513.20 225.80 L 536.90 227.90 L 558.00 229.20 L 574.50 229.50 L 573.20 238.30 L 572.60 250.60 L 572.80 257.20 L 574.00 268.40 L 576.10 276.30 L 577.50 280.00 L 579.30 283.10 L 581.20 285.60 L 583.00 287.10 L 584.90 288.30 L 587.10 289.10 L 599.80 290.60 L 604.40 290.60 L 610.80 289.60 L 614.20 288.50 L 617.40 287.10 L 620.60 285.10 L 623.90 282.40 L 626.00 280.10 L 630.30 274.10 L 632.30 270.20 L 635.50 261.70 L 637.00 256.40 L 638.30 250.20 L 639.40 242.00 L 640.20 232.20 L 640.50 220.50 Z" fill="#fb5d64" fill-rule="nonzero" group-id="1" node-id="126" stroke="none" target-height="196.1" target-width="261" target-x="379.5" target-y="94.5"></path><path d="M 568.00 124.50 L 559.70 120.00 L 551.10 116.10 L 542.40 112.50 L 533.50 109.50 L 512.70 103.10 L 489.70 96.50 L 466.30 90.50 L 454.90 88.00 L 437.70 85.20 L 426.50 84.50 L 421.80 84.70 L 417.30 85.40 L 413.00 86.50 L 408.80 88.00 L 400.80 92.00 L 393.40 97.50 L 389.00 101.70 L 384.90 106.40 L 381.20 111.50 L 378.00 117.00 L 375.30 122.70 L 373.00 128.80" fill="none" group-id="1" node-id="128" stroke="#1b3c87" stroke-linecap="round" stroke-width="4.78" target-height="44.300003" target-width="195" target-x="373" target-y="84.5"></path><path d="M 564.50 219.50 L 563.20 228.30 L 562.80 234.00 L 562.80 247.20 L 563.40 254.00 L 564.90 262.50 L 567.50 270.00 L 569.30 273.10 L 571.20 275.60 L 573.00 277.10 L 574.90 278.30 L 577.10 279.10 L 585.80 280.30 L 594.40 280.60 L 600.80 279.60 L 604.20 278.50 L 607.40 277.10 L 610.60 275.10 L 613.90 272.40 L 616.00 270.10 L 620.30 264.10 L 624.00 256.30 L 625.50 251.70 L 628.30 240.20 L 629.40 232.00 L 630.20 222.20 L 630.50 210.50 L 630.20 204.50 L 629.60 198.80 L 628.40 193.30 L 626.90 187.90 L 624.90 182.60 L 620.00 172.50 L 617.00 167.70 L 612.60 161.60 L 607.80 155.70 L 602.50 150.10" fill="none" group-id="1" node-id="130" stroke="#1b3c87" stroke-linecap="round" stroke-width="4.78" target-height="130.5" target-width="67.70001" target-x="562.8" target-y="150.1"></path><path d="M 372.00 172.60 L 373.70 178.70 L 375.80 184.40 L 378.20 189.70 L 380.90 194.60 L 384.00 199.40 L 387.30 203.60 L 390.80 207.40 L 394.50 210.70 L 398.60 213.70 L 402.80 216.10 L 407.10 218.00 L 411.50 219.50 L 417.50 202.50 L 419.70 203.60 L 428.10 205.70 L 453.40 209.90 L 474.70 212.70 L 497.70 215.30 L 520.60 217.50" fill="none" group-id="1" node-id="132" stroke="#1b3c87" stroke-linecap="round" stroke-width="4.78" target-height="46.899994" target-width="148.59998" target-x="372" target-y="172.6"></path><path d="M 623.50 292.50 L 623.20 296.20 L 622.50 299.70 L 621.40 303.00 L 619.80 306.10 L 617.90 309.00 L 615.60 311.60 L 613.00 313.80 L 610.10 315.80 L 607.00 317.30 L 603.70 318.50 L 600.20 319.20 L 596.50 319.50 L 592.80 319.20 L 589.30 318.50 L 586.00 317.30 L 582.90 315.80 L 580.00 313.80 L 577.40 311.60 L 575.10 309.00 L 573.20 306.10 L 571.60 303.00 L 570.50 299.70 L 569.80 296.20 L 569.50 292.50 L 569.80 288.80 L 570.50 285.30 L 571.60 282.00 L 573.20 278.80 L 575.10 276.00 L 577.40 273.40 L 580.00 271.10 L 582.90 269.20 L 586.00 267.60 L 589.30 266.40 L 592.80 265.70 L 596.50 265.50 L 600.20 265.70 L 603.70 266.40 L 607.00 267.60 L 610.10 269.20 L 613.00 271.10 L 615.60 273.40 L 617.90 276.00 L 619.80 278.80 L 621.40 282.00 L 622.50 285.30 L 623.20 288.80 L 623.50 292.50 Z" fill="#ffffff" fill-rule="nonzero" group-id="1" node-id="134" stroke="none" target-height="54" target-width="54" target-x="569.5" target-y="265.5"></path><path d="M 561.50 284.50 L 561.80 280.50 L 562.60 276.90 L 563.90 273.30 L 565.70 270.00 L 567.90 267.00 L 570.50 264.30 L 573.40 262.00 L 576.70 260.20 L 580.40 258.70" fill="none" group-id="1" node-id="136" stroke="#1b3c87" stroke-linecap="round" stroke-width="4.78" target-height="25.799988" target-width="18.900024" target-x="561.5" target-y="258.7"></path><path d="M 580.40 258.70 L 583.80 257.90 L 587.20 257.50 L 590.60 257.50 L 594.00 258.00 L 597.30 258.90 L 600.40 260.30 L 603.40 262.00 L 606.10 264.00 L 608.60 266.50 L 610.80 269.30 L 612.60 272.30 L 613.90 275.40 L 614.80 278.70 L 615.30 282.00 L 615.40 285.40 L 615.10 288.80 L 614.30 292.20 L 613.10 295.50 L 611.40 298.60 L 609.50 301.40 L 607.20 303.90 L 604.50 306.10 L 601.70 308.00 L 598.60 309.50 L 595.40 310.60 L 592.00 311.20 L 588.50 311.50 L 585.10 311.20 L 581.70 310.60" fill="none" group-id="1" node-id="138" stroke="#1b3c87" stroke-linecap="round" stroke-width="4.78" target-height="54" target-width="35" target-x="580.4" target-y="257.5"></path></g></svg>