<?xml version="1.0" standalone="no"?><!DOCTYPE svg PUBLIC "-//W3C//DTD SVG 1.1//EN" "http://www.w3.org/Graphics/SVG/1.1/DTD/svg11.dtd"><svg height="298" node-id="1" sillyvg="true" template-height="298" template-width="241" version="1.1" viewBox="0 0 241 298" width="241" xmlns="http://www.w3.org/2000/svg" xmlns:xlink="http://www.w3.org/1999/xlink"><defs node-id="50"><linearGradient gradientUnits="objectBoundingBox" id="linearGradient-1" node-id="7" spreadMethod="pad" x1="-0.13428178" x2="0.9121841" y1="0.3901108" y2="0.6473321"><stop offset="0" stop-color="#59d0fc"></stop><stop offset="1" stop-color="#4b79ff"></stop></linearGradient><linearGradient gradientUnits="objectBoundingBox" id="linearGradient-2" node-id="10" spreadMethod="pad" x1="0.06733401" x2="0.5" y1="0.10743261" y2="0.65582293"><stop offset="0" stop-color="#3470af"></stop><stop offset="1" stop-color="#3965ca"></stop></linearGradient><linearGradient gradientUnits="objectBoundingBox" id="linearGradient-3" node-id="13" spreadMethod="pad" x1="1" x2="0.5" y1="0.15909086" y2="0.6507113"><stop offset="0" stop-color="#59d0fc"></stop><stop offset="1" stop-color="#4b79ff"></stop></linearGradient><linearGradient gradientUnits="objectBoundingBox" id="linearGradient-4" node-id="16" spreadMethod="pad" x1="0.5" x2="0.5" y1="0" y2="1"><stop offset="0" stop-color="#ffffff"></stop><stop offset="1" stop-color="#4b79ff"></stop></linearGradient><linearGradient gradientUnits="objectBoundingBox" id="linearGradient-5" node-id="19" spreadMethod="pad" x1="0.2991044" x2="0.5" y1="-0.379432" y2="1"><stop offset="0" stop-color="#59d0fc"></stop><stop offset="1" stop-color="#4b79ff"></stop></linearGradient><linearGradient gradientUnits="objectBoundingBox" id="linearGradient-6" node-id="22" spreadMethod="pad" x1="0.5" x2="0.5" y1="0" y2="1"><stop offset="0" stop-color="#97dbf4"></stop><stop offset="1" stop-color="#537fff"></stop></linearGradient><linearGradient gradientUnits="objectBoundingBox" id="linearGradient1" node-id="88" spreadMethod="pad" x1="0.03630372" x2="0.5" y1="0.08224487" y2="0.9177551"><stop offset="0" stop-color="#dee7ff"></stop><stop offset="1" stop-color="#c5d4ff"></stop></linearGradient><linearGradient gradientUnits="objectBoundingBox" id="linearGradient-7" node-id="25" spreadMethod="pad" x1="0.03630372" x2="0.5" y1="0.08224487" y2="0.9177551"><stop offset="0" stop-color="#dee7ff"></stop><stop offset="1" stop-color="#c5d4ff"></stop></linearGradient><linearGradient gradientUnits="objectBoundingBox" id="linearGradient-8" node-id="28" spreadMethod="pad" x1="0.5" x2="0.5" y1="0" y2="1"><stop offset="0" stop-color="#59d0fc"></stop><stop offset="1" stop-color="#4b79ff"></stop></linearGradient></defs><g node-id="106"><g node-id="107"><g node-id="108"><path d="M 35.30 198.00 L 241.00 250.20 L 241.00 264.40 L 240.70 266.50 L 239.90 268.40 L 238.70 270.10 L 237.00 271.40 L 201.10 292.40 L 197.00 294.40 L 192.80 295.90 L 188.50 297.00 L 184.10 297.50 L 179.70 297.50 L 175.30 296.90 L 170.90 295.90 L 166.80 294.40 L 162.70 292.30 L 38.10 219.20 L 36.30 217.80 L 35.00 216.00 L 34.30 213.90 L 34.10 211.60 L 35.30 198.00 Z" fill="url(#linearGradient-1)" fill-opacity="0.36458334" fill-rule="evenodd" group-id="1,2,3" id="矩形复制-6" node-id="34" stroke="none" target-height="99.5" target-width="206.9" target-x="34.1" target-y="198"></path></g><path d="M 91.00 168.10 L 234.70 242.00 L 236.50 243.30 L 237.80 244.80 L 238.60 246.70 L 239.00 248.70 L 238.90 250.80 L 238.10 252.80 L 236.90 254.50 L 235.30 255.90 L 213.10 270.00 L 208.10 272.80 L 203.10 275.10 L 197.90 276.90 L 192.50 278.30 L 187.00 279.10 L 181.60 279.40 L 176.20 279.20 L 170.70 278.50 L 165.30 277.30 L 160.10 275.60 L 154.90 273.50 L 149.90 270.70 L 40.90 204.90 L 39.20 203.50 L 38.00 201.90 L 37.20 199.90 L 37.00 197.90 L 37.30 195.90 L 38.10 193.90 L 39.50 192.20 L 41.20 191.00 L 83.60 168.20 L 85.40 167.50 L 87.30 167.30 L 89.20 167.50 L 91.00 168.10 Z" fill="url(#linearGradient-2)" fill-rule="evenodd" group-id="1,2" id="矩形" node-id="35" stroke="none" target-height="112.09999" target-width="202" target-x="37" target-y="167.3"></path><g node-id="109"><path d="M 88.90 184.10 L 214.00 248.40 L 214.50 249.80 L 214.30 250.50 L 213.50 251.40 L 193.10 263.60 L 190.00 265.00 L 186.90 265.90 L 183.60 266.30 L 180.40 266.00 L 177.20 265.20 L 174.10 263.90 L 62.40 201.70 L 61.10 199.50 L 61.00 197.00 L 62.40 194.60 L 63.50 193.70 L 81.50 184.20 L 83.30 183.50 L 85.20 183.30 L 87.10 183.50 L 88.90 184.10 Z" fill="url(#linearGradient-3)" fill-opacity="0.3068964" fill-rule="evenodd" group-id="1,2,4" id="矩形复制-9" node-id="36" stroke="none" target-height="82.999985" target-width="153.5" target-x="61" target-y="183.3"></path></g><g node-id="110"><path d="M 104.00 12.50 L 181.10 57.30 L 183.50 59.00 L 187.50 63.00 L 190.30 67.90 L 191.20 70.60 L 192.00 76.30 L 191.80 237.00 L 190.50 241.00 L 188.10 244.40 L 186.60 245.80 L 182.90 247.90 L 173.30 250.00 L 95.50 200.70 L 93.00 198.90 L 88.80 194.70 L 87.10 192.20 L 84.50 186.80 L 83.20 181.00 L 83.00 177.90 L 83.00 24.60 L 83.20 22.00 L 83.90 19.70 L 84.90 17.50 L 86.30 15.50 L 88.00 13.90 L 89.90 12.50 L 92.10 11.40 L 94.40 10.80 L 97.00 10.60 L 99.50 10.80 L 101.80 11.40 L 104.00 12.50 Z" fill="url(#linearGradient-4)" fill-opacity="0.3268229" fill-rule="evenodd" group-id="1,2,5" id="矩形复制-11" node-id="37" stroke="none" target-height="239.4" target-width="109" target-x="83" target-y="10.6"></path></g><path d="M 98.10 14.50 L 175.10 59.50 L 177.50 61.10 L 181.50 65.20 L 184.30 70.10 L 185.20 72.70 L 186.00 78.50 L 186.00 233.30 L 185.80 235.80 L 185.10 238.10 L 184.10 240.30 L 182.70 242.30 L 181.00 243.90 L 179.10 245.30 L 176.90 246.40 L 174.60 247.00 L 172.00 247.30 L 169.60 247.00 L 167.30 246.40 L 165.10 245.40 L 87.90 201.30 L 85.50 199.30 L 81.50 194.50 L 78.70 188.90 L 77.80 185.90 L 77.00 179.60 L 77.00 26.60 L 77.20 24.00 L 77.90 21.70 L 78.90 19.50 L 80.30 17.60 L 82.00 15.90 L 83.90 14.50 L 86.10 13.50 L 88.40 12.80 L 91.00 12.60 L 93.50 12.80 L 95.80 13.40 L 98.10 14.50 Z" fill="url(#linearGradient-5)" fill-rule="evenodd" group-id="1,2" id="矩形" node-id="38" stroke="none" target-height="234.7" target-width="109" target-x="77" target-y="12.6"></path><path d="M 96.70 39.10 L 169.40 83.30 L 172.50 85.60 L 175.10 88.30 L 177.20 91.30 L 178.70 94.70 L 179.70 98.30 L 180.00 102.10 L 180.00 233.10 L 179.30 235.60 L 177.50 237.40 L 175.00 238.10 L 172.50 237.40 L 99.90 195.40 L 96.60 193.10 L 93.60 190.60 L 90.90 187.70 L 88.60 184.60 L 86.60 181.20 L 85.10 177.60 L 83.90 173.90 L 83.20 170.00 L 83.00 165.90 L 83.00 46.80 L 83.30 44.40 L 84.20 42.20 L 85.60 40.40 L 87.50 39.00 L 89.60 38.10 L 92.00 37.80 L 93.60 37.90 L 96.70 39.10 Z" fill="url(#linearGradient-6)" fill-rule="evenodd" group-id="1,2" id="矩形复制-10" node-id="39" stroke="none" target-height="200.3" target-width="97" target-x="83" target-y="37.8"></path><g node-id="111"><path d="M 117.80 36.50 L 146.70 53.90 L 147.60 55.00 L 147.40 56.50 L 146.90 57.00 L 145.50 57.40 L 115.80 39.70 L 115.00 38.60 L 115.20 37.10 L 116.30 36.30 L 117.80 36.50 Z" fill="#aabcff" fill-rule="evenodd" group-id="1,2,6" id="矩形" node-id="40" stroke="none" target-height="21.100002" target-width="32.600006" target-x="115" target-y="36.3"></path></g><g node-id="112"><path d="M 18.00 1.50 L 120.20 59.10 L 123.30 61.10 L 126.10 63.40 L 128.60 66.00 L 130.80 68.90 L 132.60 72.00 L 134.10 75.30 L 135.10 78.80 L 135.80 82.40 L 136.00 106.70 L 135.70 108.90 L 134.90 110.80 L 133.70 112.40 L 132.00 113.60 L 130.10 114.40 L 128.00 114.70 L 125.90 114.50 L 124.00 113.70 L 117.40 109.80 L 117.40 118.00 L 109.70 105.40 L 25.70 56.80 L 21.70 54.10 L 18.20 51.10 L 15.20 47.60 L 12.70 43.70 L 10.70 39.70 L 9.20 35.30 L 8.30 30.80 L 8.00 26.10 L 8.30 21.40 L 10.90 3.80 L 11.60 2.70 L 13.60 1.20 L 16.20 0.90 L 18.00 1.50 Z" fill="url(#linearGradient1)" fill-opacity="0.17582776" fill-rule="evenodd" group-id="1,2,7" id="矩形复制-13" node-id="41" stroke="none" target-height="117.1" target-width="128" target-x="8" target-y="0.9"></path></g><g node-id="113"><path d="M 48.00 91.50 L 150.20 149.10 L 153.30 151.10 L 156.10 153.40 L 158.60 156.00 L 160.80 158.90 L 162.60 162.00 L 164.10 165.30 L 165.10 168.80 L 165.80 172.40 L 166.00 196.70 L 165.70 198.90 L 164.90 200.80 L 163.70 202.40 L 162.00 203.60 L 160.10 204.40 L 158.00 204.70 L 155.90 204.50 L 154.00 203.70 L 147.40 199.80 L 147.40 208.00 L 139.70 195.40 L 55.70 146.80 L 51.70 144.10 L 48.20 141.10 L 45.20 137.60 L 42.70 133.70 L 40.70 129.70 L 39.20 125.30 L 38.30 120.80 L 38.00 116.10 L 38.30 111.40 L 40.90 93.80 L 41.60 92.70 L 43.60 91.20 L 46.20 90.90 L 48.00 91.50 Z" fill="url(#linearGradient-7)" fill-opacity="0.17582776" fill-rule="evenodd" group-id="1,2,8" id="矩形复制-14" node-id="42" stroke="none" target-height="117.1" target-width="128" target-x="38" target-y="90.9"></path></g><g node-id="114"><path d="M 10.00 6.50 L 112.20 64.10 L 115.30 66.10 L 118.10 68.40 L 120.60 71.00 L 122.80 73.90 L 124.60 77.00 L 126.10 80.30 L 127.10 83.80 L 127.80 87.40 L 128.00 111.70 L 127.70 113.90 L 126.90 115.80 L 125.70 117.40 L 124.00 118.60 L 122.10 119.40 L 120.00 119.70 L 117.90 119.50 L 116.00 118.70 L 109.40 114.80 L 109.40 123.00 L 101.70 110.40 L 17.70 61.80 L 13.70 59.10 L 10.20 56.10 L 7.20 52.60 L 4.70 48.70 L 2.70 44.70 L 1.20 40.30 L 0.30 35.80 L 0.00 31.10 L 0.30 26.40 L 2.90 8.80 L 3.60 7.70 L 5.60 6.20 L 8.20 5.90 L 10.00 6.50 Z" fill="url(#linearGradient-8)" fill-opacity="0.8077334" fill-rule="evenodd" group-id="1,2,9" id="矩形" node-id="43" stroke="none" target-height="117.1" target-width="128" target-x="0" target-y="5.9"></path></g><g node-id="115"><path d="M 41.00 94.50 L 143.20 152.10 L 146.30 154.10 L 149.10 156.40 L 151.60 159.00 L 153.80 161.90 L 155.60 165.00 L 157.10 168.30 L 158.10 171.80 L 158.80 175.40 L 159.00 199.70 L 158.70 201.90 L 157.90 203.80 L 156.70 205.40 L 155.00 206.60 L 153.10 207.40 L 151.00 207.70 L 148.90 207.50 L 147.00 206.70 L 140.40 202.80 L 140.40 211.00 L 132.70 198.40 L 48.70 149.80 L 44.70 147.10 L 41.20 144.10 L 38.20 140.60 L 35.70 136.70 L 33.70 132.70 L 32.20 128.30 L 31.30 123.80 L 31.00 119.10 L 31.30 114.40 L 33.90 96.80 L 34.60 95.70 L 36.60 94.20 L 39.20 93.90 L 41.00 94.50 Z" fill="#b6e8fd" fill-opacity="0.6706427" fill-rule="evenodd" group-id="1,2,10" id="矩形复制-12" node-id="44" stroke="none" target-height="117.1" target-width="128" target-x="31" target-y="93.9"></path></g><g node-id="116"><path d="M 26.50 39.50 L 86.50 72.50" fill="none" group-id="1,2,11" id="直线-3" node-id="45" stroke="#ffffff" stroke-linecap="round" stroke-opacity="0.51976377" stroke-width="3" target-height="33" target-width="60" target-x="26.5" target-y="39.5"></path></g><g node-id="117"><path d="M 57.00 126.00 L 117.00 158.00" fill="none" group-id="1,2,12" id="直线-3复制-2" node-id="46" stroke="#ffffff" stroke-linecap="round" stroke-opacity="0.51976377" stroke-width="3" target-height="32" target-width="60" target-x="57" target-y="126"></path></g><g node-id="118"><path d="M 26.50 49.50 L 86.50 81.50" fill="none" group-id="1,2,13" id="直线-3复制" node-id="47" stroke="#ffffff" stroke-linecap="round" stroke-opacity="0.51976377" stroke-width="3" target-height="32" target-width="60" target-x="26.5" target-y="49.5"></path></g><path d="M 96.00 156.00 L 118.00 168.00" fill="none" group-id="1,2,14" id="直线-3复制-3" node-id="48" stroke="#ffffff" stroke-linecap="round" stroke-opacity="0.51976377" stroke-width="3" target-height="12" target-width="22" target-x="96" target-y="156"></path></g></g></svg>